# xmcd CD database file
#
# Track frame offsets:
#	150
#	13782
#	26555
#	39977
#	53772
#	66952
#	80575
#	94217
#	107040
#	123792
#	135005
#	148727
#	162727
#	173292
#
# Disc length: 2477 seconds
#
# Revision: 0
# Processed by: cddbd v1.5.1PL0 Copyright (c) Steve Scherf et al.
# Submitted via: CDex 1.51
#
DISCID=b009ab0e
DTITLE=B.B. King - Rock Me Baby
DYEAR=1999
DGENRE=Blues
TTITLE0=Rock Me Baby
TTITLE1=Everyday I Have The Blues
TTITLE2=Wake Up This Morning
TTITLE3=You Upset Me Baby
TTITLE4=When My Heart Beats Like A Hammer
TTITLE5=Sneakin' Around
TTITLE6=Sweet Little Angel
TTITLE7=Please Love Me
TTITLE8=Sweet Sixteen Part 1
TTITLE9=Sweet Sixteen Part 2
TTITLE10=3 O'Clock Blues
TTITLE11=You Know I Love You
TTITLE12=Bad Case Of Love
TTITLE13=Ten Long Years
EXTD=YEAR: 1999
EXTT0=
EXTT1=
EXTT2=
EXTT3=
EXTT4=
EXTT5=
EXTT6=
EXTT7=
EXTT8=
EXTT9=
EXTT10=
EXTT11=
EXTT12=
EXTT13=
PLAYORDER=
